<svg height="512" width="512" xmlns="http://www.w3.org/2000/svg"><path d="M112.133 467.77h287.733C467.547 421.701 512 344.045 512 256 512 114.615 397.385 0 256 0S0 114.615 0 256c0 88.045 44.453 165.701 112.133 211.77z" fill="#603256"/><path d="M474.95 180.73c-19.1-34.61-30.45-83.99-41.86-109.59-2.01-4.53-4.03-8.31-6.09-11.14-11.75-16.128-26.646-25.752-45.227-33.288h-39.925L326.23 11.251H185.769l-15.618 15.461h-39.925C111.646 34.248 96.75 43.872 85 60c-2.06 2.83-4.08 6.61-6.09 11.14-11.41 25.6-22.76 74.98-41.86 109.59-1.96 3.55-1.53 7.94 1.04 11.08 7.58 9.28 26.45 26.57 62.59 28.09 3.81.16 7.39-1.88 9.21-5.24l13.71-25.35c4.41 45.12 8.4 96.44 8.4 134.69 0 50.18-10.86 106.07-19.87 143.77a256.007 256.007 0 0019.434 11.994h38.102l16.028 22.447a254.905 254.905 0 0046.183 8.662L256 485.875l24.123 24.998a254.905 254.905 0 0046.183-8.662l16.028-22.447h38.102a256.13 256.13 0 0019.434-11.994C390.86 430.07 380 374.18 380 324c0-38.25 3.99-89.57 8.4-134.69l13.71 25.35c1.82 3.36 5.4 5.4 9.21 5.24 36.14-1.52 55.01-18.81 62.59-28.09 2.57-3.14 3-7.53 1.04-11.08z" fill="#ff5252"/><path d="M170.359 26.507l-.208.206h-39.925C111.646 34.248 96.75 43.872 85 60c-2.06 2.83-4.08 6.61-6.09 11.14-11.41 25.6-22.76 74.98-41.86 109.59-1.96 3.55-1.53 7.94 1.04 11.08 7.58 9.28 26.45 26.57 62.59 28.09 3.81.16 7.39-1.88 9.21-5.24l13.71-25.35c4.41 45.12 8.4 96.44 8.4 134.69 0 50.18-10.86 106.07-19.87 143.77a256.007 256.007 0 0019.434 11.994h38.102l16.028 22.447a254.905 254.905 0 0046.183 8.662L256 485.875l24.123 24.998a254.905 254.905 0 0046.183-8.662l16.028-22.447h38.102a256.13 256.13 0 0019.434-11.994c-142.899 0-224.912-266.736-229.511-441.263z" fill="#f44040"/><path d="M381.773 26.712C377.693 25.057 373.442 23.5 369 22c-9.354-3.163-18.896-7.09-27.145-10.749H326.23C324.219 53.519 315.976 95.125 316 137.6c.022 39.467 0 78.933 0 118.4s.022 78.933 0 118.4c-.024 42.961 8.418 85.043 10.305 127.811 19.042-5.428 37.18-13 54.13-22.447C371.59 444.735 356.026 411.547 356 374.4c-.027-39.467 0-78.933 0-118.4s-.028-78.933 0-118.4c.027-39.116 17.271-73.797 25.773-110.888z" fill="#f9d987"/><path d="M326.305 502.211c19.042-5.428 37.18-13 54.13-22.447-1.223-4.845-2.578-9.653-3.999-14.443-20.054-4.239-38.763-13.845-56.078-27.655 2.365 21.475 4.993 42.923 5.947 64.545z" fill="#ffcb37"/><path d="M280.015 11.251h-48.03C232.915 92.848 236 174.324 236 256c0 85.053-3.35 169.891-4.123 254.873a258.9 258.9 0 0048.246 0C279.35 425.891 276 341.053 276 256c0-81.676 3.085-163.152 4.015-244.749z" fill="#f9d987"/><path d="M280.123 510.873c-.359-39.556-1.277-79.081-2.156-118.611-15.824-21.703-30.005-47.048-42.473-74.647-.965 64.441-3.031 128.808-3.617 193.258a258.9 258.9 0 0048.246 0z" fill="#ffcb37"/><path d="M185.769 11.251h-15.625C161.896 14.91 152.354 18.837 143 22c-4.442 1.5-8.693 3.057-12.773 4.712C138.729 63.803 155.973 98.484 156 137.6c.028 39.467 0 78.933 0 118.4s.027 78.933 0 118.4c-.026 37.146-15.59 70.335-24.435 105.364a254.397 254.397 0 0054.13 22.447c1.887-42.768 10.329-84.85 10.305-127.811-.022-39.467 0-78.933 0-118.4s-.022-78.933 0-118.4c.024-42.475-8.219-84.081-10.231-126.349z" fill="#f9d987"/><path d="M143 22c-4.442 1.5-8.693 3.057-12.773 4.712C138.729 63.803 155.973 98.484 156 137.6c.028 39.467 0 78.933 0 118.4s.027 78.933 0 118.4c-.026 37.146-15.59 70.335-24.435 105.364a254.397 254.397 0 0054.13 22.447c1.887-42.768 10.329-84.85 10.305-127.811-.022-39.467 0-78.933 0-118.4 0-17.706-.005-35.412-.007-53.119-17.016-66.403-25.841-134.84-25.841-191.63h-.007C161.896 14.91 152.354 18.837 143 22z" fill="#ffcb37"/><path d="M388.4 189.315l13.711 25.344a10.01 10.01 0 009.213 5.239c-6.027-5.975-9.145-67.781-10.487-104.967-.089-2.474-3.707-2.613-3.986-.154z" fill="#f44040"/><path d="M123.6 189.315l-13.711 25.344a10.01 10.01 0 01-9.213 5.239c6.027-5.975 9.145-67.781 10.487-104.967.089-2.474 3.707-2.613 3.986-.154z" fill="#d62b2b"/><path d="M328.269 4.961a49.83 49.83 0 00-10.37-3.654H194.101a49.83 49.83 0 00-10.37 3.654 466.857 466.857 0 01-13.579 6.29C181.566 27.729 208.32 56.5 256 56.5s74.434-28.771 85.848-45.249a466.857 466.857 0 01-13.579-6.29z" fill="#ffcb37"/><path d="M256 56.5c40.932 0 58.971-46.741 61.899-55.193A50.02 50.02 0 00306.556 0H205.444a50.02 50.02 0 00-11.343 1.307C197.029 9.759 215.068 56.5 256 56.5z" fill="#f44040"/></svg>